<?xml version="1.0" encoding="iso-8859-1"?>
<!-- Generator: Adobe Illustrator 16.0.0, SVG Export Plug-In . SVG Version: 6.00 Build 0)  -->
<!DOCTYPE svg PUBLIC "-//W3C//DTD SVG 1.1//EN" "http://www.w3.org/Graphics/SVG/1.1/DTD/svg11.dtd">
<svg version="1.1" id="Capa_1" xmlns="http://www.w3.org/2000/svg" xmlns:xlink="http://www.w3.org/1999/xlink" x="0px" y="0px"
	 width="31.852px" height="31.851px" viewBox="0 0 31.852 31.851" style="enable-background:new 0 0 31.852 31.851;"
	 xml:space="preserve">
<g>
	<g>
		<path d="M30.702,7.689h-7.469l-4.449-4.397c0-0.015,0-0.023,0-0.038c0-1.367-1.106-2.473-2.478-2.473
			c-1.365,0-2.475,1.109-2.475,2.476c0,0.061,0.003,0.113,0.008,0.172l-4.548,4.26h-8.14C0.497,7.689,0,8.238,0,8.893v20.991
			c0,0.654,0.497,1.187,1.152,1.187h29.549c0.656,0,1.15-0.53,1.15-1.187V8.894C31.855,8.239,31.359,7.689,30.702,7.689z
			 M15.163,5.442c0.343,0.179,0.732,0.286,1.147,0.286c0.447,0,0.867-0.127,1.229-0.334l2.324,2.295H12.76L15.163,5.442z
			 M29.518,28.732H2.338V10.101h27.179V28.732z"/>
		<path d="M3.722,13.097c0,0.654,0.529,1.168,1.185,1.168h22.04c0.656,0,1.188-0.514,1.188-1.168c0-0.655-0.529-1.169-1.188-1.169
			H4.907C4.251,11.927,3.722,12.442,3.722,13.097z"/>
		<path d="M26.949,16.166H4.907c-0.656,0-1.185,0.514-1.185,1.168s0.529,1.168,1.185,1.168h22.04c0.656,0,1.188-0.514,1.188-1.168
			S27.604,16.166,26.949,16.166z"/>
		<path d="M26.174,20.695h-9.746c-0.653,0-1.186,0.516-1.186,1.168c0,0.654,0.531,1.17,1.186,1.17h9.746
			c0.655,0,1.188-0.514,1.188-1.17C27.361,21.21,26.829,20.695,26.174,20.695z"/>
		<path d="M26.174,25.08h-9.746c-0.653,0-1.186,0.514-1.186,1.168s0.531,1.17,1.186,1.17h9.746c0.655,0,1.188-0.516,1.188-1.17
			S26.829,25.08,26.174,25.08z"/>
		<path d="M11.781,22.533l-1.508-0.312C9.99,22.164,9.641,21.912,9.5,21.66l-0.763-1.34c-0.142-0.25-0.375-0.25-0.518,0l-0.762,1.34
			c-0.143,0.252-0.491,0.504-0.772,0.561l-1.508,0.312c-0.281,0.059-0.355,0.281-0.159,0.494l1.035,1.137
			c0.194,0.213,0.328,0.623,0.297,0.908l-0.17,1.529c-0.033,0.285,0.156,0.424,0.419,0.305l1.402-0.633
			c0.262-0.119,0.691-0.119,0.955,0l1.402,0.633c0.262,0.119,0.451-0.02,0.418-0.305l-0.169-1.529
			c-0.032-0.285,0.101-0.695,0.297-0.908l1.035-1.137C12.134,22.815,12.062,22.591,11.781,22.533z"/>
	</g>
</g>
<g>
</g>
<g>
</g>
<g>
</g>
<g>
</g>
<g>
</g>
<g>
</g>
<g>
</g>
<g>
</g>
<g>
</g>
<g>
</g>
<g>
</g>
<g>
</g>
<g>
</g>
<g>
</g>
<g>
</g>
</svg>
